<?xml version="1.0" encoding="utf-8"?>
<!-- Uploaded to: SVG Repo, www.svgrepo.com, Generator: SVG Repo Mixer Tools -->
<svg xmlns="http://www.w3.org/2000/svg" xmlns:xlink="http://www.w3.org/1999/xlink" version="1.1" id="cloudyweather"  viewBox="0 0 220 196.7712" enable-background="new 0 0 220 196.7712" xml:space="preserve" width="512" height="512">
<g>
	<path fill="#D0E8FF" d="M178,87.3116l-0.6367,0.0039c-0.4961,0.002-0.9844,0.0078-1.4688-0.0059   c-2.168-0.0566-3.8945-1.8301-3.8945-3.998c0-26.4668-22.4297-48-50-48c-21.9004,0-41.0566,13.4531-47.6699,33.4746   c-0.5879,1.7793-2.3438,2.9219-4.1895,2.7266C68.7793,71.38,67.3965,71.3116,66,71.3116c-23.1582,0-42,18.8418-42,42   c0.001,0.2075,0.0398,0.8667,0.1072,1.7612c2.8645-0.8022,5.8738-1.2612,8.9944-1.2612c0.0566,0,0.1133,0,0.1719,0   c5.8652-13.5762,19.6602-22.5,35.2578-22.5c19.6699,0,35.9121,14.3066,37.9473,32.6113   C120.7637,125.1886,132,137.1007,132,151.5616c0,1.2715-0.1162,2.5151-0.2837,3.7427l48.2661-0.0435   C197.8477,154.3351,212,139.421,212,121.3116C212,102.5636,196.748,87.3116,178,87.3116z"/>
	<path fill="#5CB0FF" d="M103.959,131.8116c-0.3555,0-0.709,0.0098-1.0605,0.0273c-1.0879,0.0801-2.1641-0.3379-2.9609-1.0938   c-0.7949-0.7559-1.2441-1.8047-1.2441-2.9004c0-15.748-13.5312-28.5332-30.1621-28.5332c-13.2266,0-24.7891,8-28.7695,19.9062   c-0.5918,1.7676-2.3223,2.8965-4.1797,2.7129c-0.8164-0.0781-1.6445-0.1191-2.4805-0.1191C19.2598,121.8116,8,132.9152,8,146.5616   s11.2598,24.75,25.1016,24.75c0.3711,0,0.7402-0.0078,1.1074-0.0234c0.2148-0.002,0.4258,0.002,0.6328,0.0234h69.877   c0.0957-0.0117,0.1934-0.0215,0.293-0.0254c10.6484-0.543,18.9883-9.207,18.9883-19.7246   C124,140.671,115.0098,131.8116,103.959,131.8116z"/>
	<path fill="#1C71DA" d="M179.8574,79.3527c-2.1113-29.0391-27.2539-52.041-57.8574-52.041   c-24.2793,0-45.6719,14.3555-54.2051,36.0312c-0.5957-0.0215-1.1934-0.0312-1.7949-0.0312c-27.5703,0-50,22.4297-50,50   c0,0.8379,0.1748,3.0791,0.3628,5.0444C6.5903,124.0558,0,134.549,0,146.5616c0,18.3691,15.5176,33.2656,34.041,32.7363   c0.1074,0.0098,0.2168,0.0137,0.3262,0.0137h70.8574c0.248,0,0.4922-0.0234,0.7305-0.0684   c10.4385-0.7266,19.2-7.0732,23.3887-15.937l50.8477-0.0513C202.5137,162.1066,220,143.6827,220,121.3116   C220,98.7745,202.1582,80.3273,179.8574,79.3527z M105.0117,171.2863c-0.0996,0.0039-0.1973,0.0137-0.293,0.0254h-69.877   c-0.207-0.0215-0.418-0.0254-0.6328-0.0234c-0.3672,0.0156-0.7363,0.0234-1.1074,0.0234C19.2598,171.3116,8,160.2081,8,146.5616   s11.2598-24.75,25.1016-24.75c0.8359,0,1.6641,0.041,2.4805,0.1191c1.8574,0.1836,3.5879-0.9453,4.1797-2.7129   c3.9805-11.9062,15.543-19.9062,28.7695-19.9062c16.6309,0,30.1621,12.7852,30.1621,28.5332c0,1.0957,0.4492,2.1445,1.2441,2.9004   c0.7969,0.7559,1.873,1.1738,2.9609,1.0938c0.3515-0.0176,0.7051-0.0273,1.0605-0.0273c11.0508,0,20.041,8.8594,20.041,19.75   C124,162.0792,115.6602,170.7433,105.0117,171.2863z M179.9824,155.2609l-48.2661,0.0435   c0.1675-1.2275,0.2837-2.4712,0.2837-3.7427c0-14.4609-11.2363-26.373-25.5215-27.6387   c-2.0352-18.3047-18.2773-32.6113-37.9473-32.6113c-15.5977,0-29.3926,8.9238-35.2578,22.5c-0.0586,0-0.1152,0-0.1719,0   c-3.1206,0-6.1299,0.459-8.9944,1.2612c-0.0674-0.8945-0.1062-1.5537-0.1072-1.7612c0-23.1582,18.8418-42,42-42   c1.3965,0,2.7793,0.0684,4.1406,0.2012c1.8457,0.1953,3.6016-0.9473,4.1895-2.7266C80.9434,48.7648,100.0996,35.3116,122,35.3116   c27.5703,0,50,21.5332,50,48c0,2.168,1.7266,3.9414,3.8945,3.998c0.4844,0.0137,0.9727,0.0078,1.4688,0.0059L178,87.3116   c18.748,0,34,15.252,34,34C212,139.421,197.8477,154.3351,179.9824,155.2609z"/>
</g>
<path fill="#FF5D5D" d="M184.3854,22.1438c-1.0239,0-2.0474-0.3906-2.8286-1.1714c-1.562-1.5625-1.562-4.0947,0-5.6572  l14.1421-14.1421c1.5625-1.5615,4.0947-1.5615,5.6572,0c1.562,1.5625,1.562,4.0947,0,5.6572L187.214,20.9724  C186.4328,21.7532,185.4093,22.1438,184.3854,22.1438z"/>
<path fill="#FF5D5D" d="M198.5275,22.1418c-1.0239,0-2.0474-0.3906-2.8286-1.1714L181.5568,6.8284  c-1.562-1.5625-1.562-4.0947,0-5.6572c1.5625-1.5615,4.0947-1.5615,5.6572,0l14.1421,14.1421c1.562,1.5625,1.562,4.0947,0,5.6572  C200.5748,21.7512,199.5514,22.1418,198.5275,22.1418z"/>
<path fill="#00D40B" d="M30.3854,42.1438c-7.7197,0-14-6.2803-14-14s6.2803-14,14-14s14,6.2803,14,14  S38.1051,42.1438,30.3854,42.1438z M30.3854,22.1438c-3.3086,0-6,2.6914-6,6s2.6914,6,6,6s6-2.6914,6-6  S33.694,22.1438,30.3854,22.1438z"/>
<path fill="#FFC504" d="M171.6989,196.7712L171.6989,196.7712c-1.061,0-2.0781-0.4214-2.8286-1.1719l-11.3135-11.314  c-1.562-1.562-1.562-4.0942,0-5.6567l11.3135-11.3135c1.5625-1.5615,4.0952-1.5615,5.6567,0l11.314,11.3135  c0.7505,0.7505,1.1719,1.7676,1.1719,2.8286s-0.4214,2.0781-1.1714,2.8286l-11.314,11.314  C173.777,196.3499,172.7599,196.7712,171.6989,196.7712z M166.0421,181.4573l5.6567,5.6572l5.6572-5.6572l-5.6572-5.6567  L166.0421,181.4573z"/>
</svg>